<?xml version="1.0" encoding="utf-8"?>
<!-- Generator: Adobe Illustrator 26.3.1, SVG Export Plug-In . SVG Version: 6.00 Build 0)  -->
<svg version="1.1" id="Camada_2" xmlns="http://www.w3.org/2000/svg" xmlns:xlink="http://www.w3.org/1999/xlink" x="0px" y="0px"
	 viewBox="0 0 320 320" style="enable-background:new 0 0 320 320;" xml:space="preserve">
<style type="text/css">
	.st0{fill:none;stroke:#1D1D1B;stroke-miterlimit:10;}
</style>
<path class="st0" d="M231.29,65.43"/>
<g>
	<path d="M144.28,319.23c-0.71-0.07-1.43-0.15-2.14-0.23C142.85,319.08,143.56,319.16,144.28,319.23z"/>
	<path d="M140.79,318.85c-0.82-0.1-1.63-0.2-2.45-0.31C139.15,318.65,139.97,318.75,140.79,318.85z"/>
	<path d="M181.39,318.57c-0.72,0.1-1.44,0.19-2.16,0.27C179.96,318.76,180.68,318.67,181.39,318.57z"/>
	<path d="M147.92,319.55c-0.57-0.04-1.13-0.1-1.7-0.15C146.78,319.45,147.35,319.51,147.92,319.55z"/>
	<path d="M137.48,318.41c-0.92-0.13-1.84-0.26-2.76-0.41C135.63,318.15,136.55,318.28,137.48,318.41z"/>
	<path d="M173.64,319.42c-0.52,0.04-1.04,0.09-1.56,0.13C172.6,319.51,173.12,319.46,173.64,319.42z"/>
	<path d="M147.92,319.55c3.99,0.3,8.02,0.45,12.08,0.45s8.09-0.15,12.08-0.45H147.92z"/>
	<path d="M177.65,319.03c-0.64,0.07-1.29,0.14-1.94,0.2C176.36,319.17,177.01,319.1,177.65,319.03z"/>
	<path d="M160,0C71.63,0,0,71.63,0,160c0,79.76,58.37,145.88,134.71,158V207H94.29v-47h40.43v-31.29
		c-2.62-50.29,30.07-76,96.57-63.29c1,10,0,35,0,39.86C181.71,98.71,185,128.71,185,128.71V160h44.07v2.5l-6.49,44.5H185v111.05
		c-0.79,0.12-1.59,0.24-2.39,0.35C260.27,307.42,320,240.69,320,160C320,71.63,248.37,0,160,0z"/>
</g>
</svg>
