<?xml version="1.0" encoding="utf-8"?>
<!-- Generator: Adobe Illustrator 26.3.1, SVG Export Plug-In . SVG Version: 6.00 Build 0)  -->
<svg version="1.1" xmlns="http://www.w3.org/2000/svg" xmlns:xlink="http://www.w3.org/1999/xlink" x="0px" y="0px"
	 viewBox="0 0 325 330" style="enable-background:new 0 0 325 330;" xml:space="preserve">
<style type="text/css">
	.st0{display:none;}
	.st1{stroke:#000000;stroke-miterlimit:10;}
</style>
<g id="Camada_1" class="st0">
</g>
<g id="Camada_2">
	<path class="st1" d="M162,0.5C72.25,0.5-0.5,73.25-0.5,163S72.25,325.5,162,325.5S324.5,252.75,324.5,163S251.75,0.5,162,0.5z
		 M101.5,272.5h-46v-147h46V272.5z M79,105.5c-14.64,0-26.5-11.86-26.5-26.5S64.36,52.5,79,52.5s26.5,11.86,26.5,26.5
		S93.64,105.5,79,105.5z M272.5,181.5v91h-46v-91c0,0-4-21-24-20c-15.61,0-26.15,15.41-27,23.63v2.01v85.36h-45v-147h45v19.21
		c4-12.21,23-23.21,48-23.21C278.5,126.5,272.5,181.5,272.5,181.5z"/>
</g>
</svg>
