<?xml version="1.0" encoding="utf-8"?>
<!-- Generator: Adobe Illustrator 26.3.1, SVG Export Plug-In . SVG Version: 6.00 Build 0)  -->
<svg version="1.1" id="Camada_2" xmlns="http://www.w3.org/2000/svg" xmlns:xlink="http://www.w3.org/1999/xlink" x="0px" y="0px"
	 viewBox="0 0 325 330" style="enable-background:new 0 0 325 330;" xml:space="preserve">
<style type="text/css">
	.st0{stroke:#000000;stroke-miterlimit:10;}
</style>
<path class="st0" d="M226.18,44.5H58.82C26.06,44.5-0.5,71.06-0.5,103.82v167.36c0,32.76,26.56,59.32,59.32,59.32h167.36
	c32.76,0,59.32-26.56,59.32-59.32V103.82C285.5,71.06,258.94,44.5,226.18,44.5z M145.5,287c-18.04,0-34.98-4.69-49.69-12.91
	l-53.1,14.1l14.21-52.57C48.39,220.7,43.5,203.42,43.5,185c0-56.33,45.67-102,102-102s102,45.67,102,102
	C247.5,241.33,201.83,287,145.5,287z"/>
<path class="st0" d="M145.5,100.5c-46.94,0-85,38.06-85,85c0,18.05,5.64,34.77,15.24,48.54l-7.86,30.42l31.11-7.82
	c13.37,8.76,29.33,13.86,46.51,13.86c46.94,0,85-38.06,85-85S192.44,100.5,145.5,100.5z M176,234c-22,2-51-21-58-28c0,0-28-29-24-47
	c3-14,7-17,14-21c1,0,9-1,11,2c1,3,10,22,10,25c-1,3-8.46,11-8.46,11s-3.54,1,8.46,15s25,18,29,20s8.71-12,13.86-14L197,209
	C197,209,201,231,176,234z"/>
</svg>
